<?xml version="1.0" encoding="UTF-8"?>
<svg xmlns="http://www.w3.org/2000/svg" xmlns:xlink="http://www.w3.org/1999/xlink" width="px" height="px" viewBox="0 0 255 255" version="1.1">
<g id="surface1">
<path style=" stroke:none;fill-rule:nonzero;fill:rgb(94.117647%,34.509804%,18.431373%);fill-opacity:1;" d="M 255 127.5 C 255 197.917969 197.917969 255 127.5 255 C 57.082031 255 0 197.917969 0 127.5 C 0 57.082031 57.082031 0 127.5 0 C 197.917969 0 255 57.082031 255 127.5 Z M 255 127.5 "/>
<path style=" stroke:none;fill-rule:nonzero;fill:rgb(59.215686%,71.372549%,69.411765%);fill-opacity:1;" d="M 200.441406 101.800781 C 151.847656 101.800781 103.203125 101.800781 54.605469 101.800781 C 58.664062 89.074219 62.722656 75.898438 66.78125 62.472656 C 68.433594 56.910156 73.746094 52.601562 79.707031 52.101562 C 111.519531 49.496094 143.53125 49.496094 175.394531 52.101562 C 181.40625 52.601562 186.664062 56.910156 188.320312 62.472656 C 192.328125 75.898438 196.386719 89.074219 200.441406 101.800781 Z M 200.441406 101.800781 "/>
<path style=" stroke:none;fill-rule:nonzero;fill:rgb(20%,21.960784%,25.882353%);fill-opacity:1;" d="M 196.132812 105.65625 C 150.394531 105.65625 104.605469 105.65625 58.867188 105.65625 C 62.671875 93.683594 66.480469 81.308594 70.289062 68.632812 C 71.839844 63.425781 76.800781 59.367188 82.460938 58.867188 C 112.421875 56.410156 142.53125 56.410156 172.488281 58.867188 C 178.148438 59.316406 183.109375 63.375 184.660156 68.632812 C 188.519531 81.308594 192.328125 93.683594 196.132812 105.65625 Z M 196.132812 105.65625 "/>
<path style=" stroke:none;fill-rule:nonzero;fill:rgb(3.137255%,2.745098%,3.137255%);fill-opacity:1;" d="M 22.242188 155.855469 L 22.242188 199.242188 C 22.242188 202.347656 24.75 204.851562 27.855469 204.851562 L 44.636719 204.851562 C 47.742188 204.851562 50.25 202.347656 50.25 199.242188 L 50.25 155.855469 Z M 22.242188 155.855469 "/>
<path style=" stroke:none;fill-rule:nonzero;fill:rgb(3.137255%,2.745098%,3.137255%);fill-opacity:1;" d="M 204.75 155.855469 L 204.75 199.242188 C 204.75 202.347656 207.257812 204.851562 210.363281 204.851562 L 227.195312 204.851562 C 230.300781 204.851562 232.804688 202.347656 232.804688 199.242188 L 232.804688 155.855469 Z M 204.75 155.855469 "/>
<path style=" stroke:none;fill-rule:nonzero;fill:rgb(48.627451%,64.313725%,64.313725%);fill-opacity:1;" d="M 82.660156 173.539062 C 82.660156 182.058594 89.574219 188.96875 98.09375 188.96875 L 156.957031 188.96875 C 165.472656 188.96875 172.386719 182.058594 172.386719 173.539062 Z M 82.660156 173.539062 "/>
<path style=" stroke:none;fill-rule:nonzero;fill:rgb(20%,21.960784%,25.882353%);fill-opacity:1;" d="M 98.09375 186.816406 C 91.480469 186.816406 86.019531 182.007812 84.964844 175.695312 L 170.035156 175.695312 C 168.980469 182.007812 163.519531 186.816406 156.90625 186.816406 Z M 98.09375 186.816406 "/>
<path style=" stroke:none;fill-rule:nonzero;fill:rgb(39.215686%,41.960784%,47.45098%);fill-opacity:1;" d="M 13.878906 147.789062 C 13.878906 165.023438 27.855469 179 45.089844 179 L 209.863281 179 C 227.09375 179 241.074219 165.023438 241.074219 147.789062 Z M 13.878906 147.789062 "/>
<path style=" stroke:none;fill-rule:nonzero;fill:rgb(48.627451%,64.313725%,64.313725%);fill-opacity:1;" d="M 63.023438 93.234375 C 105.90625 88.875 149.140625 88.875 192.027344 93.234375 C 196.285156 97.390625 200.542969 101.550781 204.851562 105.605469 C 205.753906 115.375 206.65625 125.046875 207.558594 134.664062 C 203.851562 138.921875 200.140625 143.28125 196.433594 147.738281 C 150.496094 147.738281 104.605469 147.738281 58.664062 147.738281 C 54.90625 138.722656 51.101562 129.90625 47.34375 121.339844 C 49.996094 113.621094 52.703125 105.808594 55.359375 97.890625 C 57.863281 96.390625 60.417969 94.835938 63.023438 93.234375 Z M 63.023438 93.234375 "/>
<path style=" stroke:none;fill-rule:nonzero;fill:rgb(48.627451%,64.313725%,64.313725%);fill-opacity:1;" d="M 63.023438 93.234375 C 105.90625 88.875 149.140625 88.875 192.027344 93.234375 C 196.285156 97.390625 200.542969 101.550781 204.851562 105.605469 C 205.753906 115.375 206.65625 125.046875 207.558594 134.664062 C 203.851562 138.921875 200.140625 143.28125 196.433594 147.738281 C 150.496094 147.738281 104.605469 147.738281 58.664062 147.738281 C 54.90625 138.722656 51.101562 129.90625 47.34375 121.339844 C 49.996094 113.621094 52.703125 105.808594 55.359375 97.890625 C 57.863281 96.390625 60.417969 94.835938 63.023438 93.234375 Z M 63.023438 93.234375 "/>
<path style=" stroke:none;fill-rule:nonzero;fill:rgb(59.215686%,71.372549%,69.411765%);fill-opacity:1;" d="M 63.023438 95.035156 C 63.023438 95.035156 25.902344 97.890625 13.726562 121.039062 C 10.621094 127 9.167969 137.117188 15.628906 147.789062 L 58.566406 147.789062 C 58.613281 147.789062 43.535156 122.390625 63.023438 95.035156 Z M 63.023438 95.035156 "/>
<path style=" stroke:none;fill-rule:nonzero;fill:rgb(39.215686%,41.960784%,47.45098%);fill-opacity:1;" d="M 48.847656 128.300781 C 48.847656 137.042969 41.757812 144.132812 33.015625 144.132812 C 24.273438 144.132812 17.183594 137.042969 17.183594 128.300781 C 17.183594 119.558594 24.273438 112.46875 33.015625 112.46875 C 41.757812 112.46875 48.847656 119.558594 48.847656 128.300781 Z M 48.847656 128.300781 "/>
<path style=" stroke:none;fill-rule:nonzero;fill:rgb(100%,100%,100%);fill-opacity:1;" d="M 45.1875 128.300781 C 45.1875 135.023438 39.738281 140.476562 33.015625 140.476562 C 26.292969 140.476562 20.839844 135.023438 20.839844 128.300781 C 20.839844 121.578125 26.292969 116.128906 33.015625 116.128906 C 39.738281 116.128906 45.1875 121.578125 45.1875 128.300781 Z M 45.1875 128.300781 "/>
<path style=" stroke:none;fill-rule:nonzero;fill:rgb(59.215686%,71.372549%,69.411765%);fill-opacity:1;" d="M 191.976562 95.035156 C 191.976562 95.035156 229.097656 97.890625 241.273438 121.039062 C 244.378906 127 245.832031 137.117188 239.371094 147.789062 L 196.433594 147.789062 C 196.386719 147.789062 211.464844 122.390625 191.976562 95.035156 Z M 191.976562 95.035156 "/>
<path style=" stroke:none;fill-rule:nonzero;fill:rgb(39.215686%,41.960784%,47.45098%);fill-opacity:1;" d="M 237.816406 128.300781 C 237.816406 137.042969 230.726562 144.132812 221.984375 144.132812 C 213.242188 144.132812 206.152344 137.042969 206.152344 128.300781 C 206.152344 119.558594 213.242188 112.46875 221.984375 112.46875 C 230.726562 112.46875 237.816406 119.558594 237.816406 128.300781 Z M 237.816406 128.300781 "/>
<path style=" stroke:none;fill-rule:nonzero;fill:rgb(100%,100%,100%);fill-opacity:1;" d="M 234.160156 128.300781 C 234.160156 135.023438 228.707031 140.476562 221.984375 140.476562 C 215.261719 140.476562 209.8125 135.023438 209.8125 128.300781 C 209.8125 121.578125 215.261719 116.128906 221.984375 116.128906 C 228.707031 116.128906 234.160156 121.578125 234.160156 128.300781 Z M 234.160156 128.300781 "/>
<path style=" stroke:none;fill-rule:nonzero;fill:rgb(87.058824%,87.058824%,87.45098%);fill-opacity:1;" d="M 176.347656 140.925781 C 143.882812 137.269531 111.066406 137.269531 78.652344 140.925781 C 70.839844 141.976562 64.476562 148.84375 64.476562 155.855469 C 64.476562 162.871094 70.789062 169.734375 78.652344 170.785156 C 111.117188 174.441406 143.933594 174.441406 176.347656 170.785156 C 184.160156 169.734375 190.523438 162.871094 190.523438 155.855469 C 190.523438 148.84375 184.160156 141.976562 176.347656 140.925781 Z M 176.347656 140.925781 "/>
<path style=" stroke:none;fill-rule:nonzero;fill:rgb(97.254902%,70.980392%,9.019608%);fill-opacity:1;" d="M 35.320312 158.058594 C 32.011719 158.058594 29.308594 160.765625 29.308594 164.070312 C 29.308594 167.378906 32.011719 170.082031 35.320312 170.082031 L 55.109375 170.082031 L 55.109375 158.058594 Z M 35.320312 158.058594 "/>
<path style=" stroke:none;fill-rule:nonzero;fill:rgb(97.254902%,70.980392%,9.019608%);fill-opacity:1;" d="M 219.679688 158.058594 C 222.988281 158.058594 225.691406 160.765625 225.691406 164.070312 C 225.691406 167.378906 222.988281 170.082031 219.679688 170.082031 L 199.890625 170.082031 L 199.890625 158.058594 Z M 219.679688 158.058594 "/>
<path style=" stroke:none;fill-rule:nonzero;fill:rgb(94.509804%,95.294118%,96.862745%);fill-opacity:1;" d="M 55.109375 144.132812 L 61.46875 144.132812 L 61.46875 173.589844 L 55.109375 173.589844 Z M 55.109375 144.132812 "/>
<path style=" stroke:none;fill-rule:nonzero;fill:rgb(94.509804%,95.294118%,96.862745%);fill-opacity:1;" d="M 193.53125 144.132812 L 199.890625 144.132812 L 199.890625 173.589844 L 193.53125 173.589844 Z M 193.53125 144.132812 "/>
<path style=" stroke:none;fill-rule:nonzero;fill:rgb(20%,21.960784%,25.882353%);fill-opacity:1;" d="M 69.4375 148.492188 C 68.035156 150.246094 67.082031 152.296875 66.730469 154.402344 L 188.21875 154.402344 C 187.917969 152.296875 186.964844 150.246094 185.5625 148.492188 Z M 69.4375 148.492188 "/>
<path style=" stroke:none;fill-rule:nonzero;fill:rgb(20%,21.960784%,25.882353%);fill-opacity:1;" d="M 66.78125 157.308594 C 67.082031 159.414062 68.035156 161.464844 69.4375 163.21875 L 185.5625 163.21875 C 186.964844 161.464844 187.917969 159.414062 188.269531 157.308594 Z M 66.78125 157.308594 "/>
<path style=" stroke:none;fill-rule:nonzero;fill:rgb(20%,21.960784%,25.882353%);fill-opacity:1;" d="M 72.542969 166.125 C 74.394531 167.429688 76.601562 168.378906 78.90625 168.679688 C 94.984375 170.484375 111.316406 171.386719 127.5 171.386719 C 143.683594 171.386719 160.0625 170.484375 176.046875 168.679688 C 178.351562 168.378906 180.554688 167.429688 182.40625 166.125 Z M 72.542969 166.125 "/>
<path style=" stroke:none;fill-rule:nonzero;fill:rgb(20%,21.960784%,25.882353%);fill-opacity:1;" d="M 182.457031 145.636719 C 180.605469 144.332031 178.398438 143.382812 176.09375 143.082031 C 160.015625 141.277344 143.683594 140.375 127.5 140.375 C 111.316406 140.375 94.9375 141.277344 78.953125 143.082031 C 76.648438 143.382812 74.445312 144.332031 72.59375 145.636719 Z M 182.457031 145.636719 "/>
</g>
</svg>
